<?xml version="1.0" encoding="UTF-8" standalone="no"?>
<!-- Created with Inkscape (http://www.inkscape.org/) -->

<svg
   width="12.7mm"
   height="12.7mm"
   viewBox="0 0 12.7 12.7"
   version="1.1"
   id="svg5"
   inkscape:version="1.2.1 (9c6d41e410, 2022-07-14)"
   sodipodi:docname="hamburger.svg"
   xmlns:inkscape="http://www.inkscape.org/namespaces/inkscape"
   xmlns:sodipodi="http://sodipodi.sourceforge.net/DTD/sodipodi-0.dtd"
   xmlns="http://www.w3.org/2000/svg"
   xmlns:svg="http://www.w3.org/2000/svg">
  <sodipodi:namedview
     id="namedview7"
     pagecolor="#ffffff"
     bordercolor="#000000"
     borderopacity="0.25"
     inkscape:showpageshadow="2"
     inkscape:pageopacity="0.0"
     inkscape:pagecheckerboard="0"
     inkscape:deskcolor="#d1d1d1"
     inkscape:document-units="mm"
     showgrid="false"
     inkscape:zoom="1.5643378"
     inkscape:cx="427.65699"
     inkscape:cy="380.033"
     inkscape:window-width="1918"
     inkscape:window-height="1059"
     inkscape:window-x="0"
     inkscape:window-y="19"
     inkscape:window-maximized="1"
     inkscape:current-layer="layer1" />
  <defs
     id="defs2">
    <inkscape:path-effect
       effect="fillet_chamfer"
       id="path-effect1017"
       is_visible="true"
       lpeversion="1"
       nodesatellites_param="F,0,0,1,0,0.52916667,0,1 @ F,0,0,1,0,0.52916667,0,1 @ F,0,0,1,0,0.52916667,0,1 @ F,0,0,1,0,0.52916667,0,1"
       unit="px"
       method="auto"
       mode="F"
       radius="2"
       chamfer_steps="1"
       flexible="false"
       use_knot_distance="true"
       apply_no_radius="true"
       apply_with_radius="true"
       only_selected="false"
       hide_knots="false" />
    <inkscape:path-effect
       effect="fillet_chamfer"
       id="path-effect1017-3"
       is_visible="true"
       lpeversion="1"
       nodesatellites_param="F,0,0,1,0,0.52916667,0,1 @ F,0,0,1,0,0.52916667,0,1 @ F,0,0,1,0,0.52916667,0,1 @ F,0,0,1,0,0.52916667,0,1"
       unit="px"
       method="auto"
       mode="F"
       radius="2"
       chamfer_steps="1"
       flexible="false"
       use_knot_distance="true"
       apply_no_radius="true"
       apply_with_radius="true"
       only_selected="false"
       hide_knots="false" />
    <inkscape:path-effect
       effect="fillet_chamfer"
       id="path-effect1017-3-7"
       is_visible="true"
       lpeversion="1"
       nodesatellites_param="F,0,0,1,0,0.52916667,0,1 @ F,0,0,1,0,0.52916667,0,1 @ F,0,0,1,0,0.52916667,0,1 @ F,0,0,1,0,0.52916667,0,1"
       unit="px"
       method="auto"
       mode="F"
       radius="2"
       chamfer_steps="1"
       flexible="false"
       use_knot_distance="true"
       apply_no_radius="true"
       apply_with_radius="true"
       only_selected="false"
       hide_knots="false" />
  </defs>
  <g
     inkscape:label="Layer 1"
     inkscape:groupmode="layer"
     id="layer1">
    <g
       id="g1302"
       transform="translate(0,0.26322287)">
      <path
         style="fill:#ffffff;stroke-width:0.264583"
         id="rect228"
         width="10.958021"
         height="1.4157904"
         x="0.87098932"
         y="2.4456785"
         inkscape:path-effect="#path-effect1017"
         d="m 1.400156,2.4456785 h 9.899688 a 0.52916667,0.52916667 45 0 1 0.529166,0.5291666 l 0,0.3574571 A 0.52916667,0.52916667 135 0 1 11.299844,3.8614689 H 1.400156 A 0.52916667,0.52916667 45 0 1 0.87098932,3.3323022 l 0,-0.3574571 A 0.52916667,0.52916667 135 0 1 1.400156,2.4456785 Z"
         sodipodi:type="rect" />
      <path
         style="fill:#ffffff;stroke-width:0.264583"
         id="rect228-6"
         width="10.958021"
         height="1.4157904"
         x="0.87098932"
         y="5.378881"
         inkscape:path-effect="#path-effect1017-3"
         d="m 1.400156,5.378881 h 9.899688 a 0.52916667,0.52916667 45 0 1 0.529166,0.5291666 l 0,0.3574571 A 0.52916667,0.52916667 135 0 1 11.299844,6.7946714 H 1.400156 A 0.52916667,0.52916667 45 0 1 0.87098932,6.2655047 l 0,-0.3574571 A 0.52916667,0.52916667 135 0 1 1.400156,5.378881 Z"
         sodipodi:type="rect" />
      <path
         style="fill:#ffffff;stroke-width:0.264583"
         id="rect228-6-5"
         width="10.958021"
         height="1.4157904"
         x="0.87098932"
         y="8.3120852"
         inkscape:path-effect="#path-effect1017-3-7"
         d="m 1.400156,8.3120852 h 9.899688 a 0.52916667,0.52916667 45 0 1 0.529166,0.5291666 l 0,0.3574571 a 0.52916667,0.52916667 135 0 1 -0.529166,0.5291667 l -9.899688,0 A 0.52916667,0.52916667 45 0 1 0.87098932,9.1987089 l 0,-0.3574571 A 0.52916667,0.52916667 135 0 1 1.400156,8.3120852 Z"
         sodipodi:type="rect" />
    </g>
  </g>
</svg>
